<mxfile host="app.diagrams.net" modified="2024-04-16T00:44:12.340Z" agent="Mozilla/5.0 (Windows NT 10.0; Win64; x64) AppleWebKit/537.36 (KHTML, like Gecko) Chrome/123.0.0.0 Safari/537.36" etag="7gvi488F-WZcXd4WaBsn" version="24.2.5" type="github">
  <diagram id="R2lEEEUBdFMjLlhIrx00" name="Page-1">
    <mxGraphModel dx="1850" dy="1722" grid="1" gridSize="10" guides="1" tooltips="1" connect="1" arrows="1" fold="1" page="1" pageScale="1" pageWidth="850" pageHeight="1100" math="0" shadow="0" extFonts="Permanent Marker^https://fonts.googleapis.com/css?family=Permanent+Marker">
      <root>
        <mxCell id="0" />
        <mxCell id="1" parent="0" />
        <mxCell id="WpR4HrJ7JRZAoJs09nRu-18" style="edgeStyle=none;rounded=0;orthogonalLoop=1;jettySize=auto;html=1;exitX=0.5;exitY=1;exitDx=0;exitDy=0;strokeWidth=9;" edge="1" parent="1" source="WpR4HrJ7JRZAoJs09nRu-1" target="WpR4HrJ7JRZAoJs09nRu-7">
          <mxGeometry relative="1" as="geometry" />
        </mxCell>
        <mxCell id="WpR4HrJ7JRZAoJs09nRu-35" style="edgeStyle=none;rounded=0;orthogonalLoop=1;jettySize=auto;html=1;exitX=1;exitY=0.5;exitDx=0;exitDy=0;entryX=0;entryY=0.5;entryDx=0;entryDy=0;strokeColor=default;align=center;verticalAlign=middle;fontFamily=Helvetica;fontSize=11;fontColor=default;labelBackgroundColor=default;endArrow=none;endFill=0;" edge="1" parent="1" source="WpR4HrJ7JRZAoJs09nRu-1" target="WpR4HrJ7JRZAoJs09nRu-34">
          <mxGeometry relative="1" as="geometry" />
        </mxCell>
        <mxCell id="WpR4HrJ7JRZAoJs09nRu-1" value="Persona" style="rounded=0;whiteSpace=wrap;html=1;" vertex="1" parent="1">
          <mxGeometry x="270" y="80" width="120" height="60" as="geometry" />
        </mxCell>
        <mxCell id="WpR4HrJ7JRZAoJs09nRu-38" style="edgeStyle=none;rounded=0;orthogonalLoop=1;jettySize=auto;html=1;exitX=1;exitY=0.5;exitDx=0;exitDy=0;entryX=0;entryY=0.5;entryDx=0;entryDy=0;strokeColor=default;align=center;verticalAlign=middle;fontFamily=Helvetica;fontSize=11;fontColor=default;labelBackgroundColor=default;endArrow=none;endFill=0;startArrow=ERone;startFill=0;" edge="1" parent="1" source="WpR4HrJ7JRZAoJs09nRu-3" target="WpR4HrJ7JRZAoJs09nRu-37">
          <mxGeometry relative="1" as="geometry" />
        </mxCell>
        <mxCell id="WpR4HrJ7JRZAoJs09nRu-3" value="Contacto" style="rounded=0;whiteSpace=wrap;html=1;" vertex="1" parent="1">
          <mxGeometry x="830" y="80" width="120" height="60" as="geometry" />
        </mxCell>
        <mxCell id="WpR4HrJ7JRZAoJs09nRu-59" style="edgeStyle=none;rounded=0;orthogonalLoop=1;jettySize=auto;html=1;exitX=1;exitY=0.5;exitDx=0;exitDy=0;entryX=0;entryY=0.5;entryDx=0;entryDy=0;strokeColor=default;align=center;verticalAlign=middle;fontFamily=Helvetica;fontSize=11;fontColor=default;labelBackgroundColor=default;endArrow=none;endFill=0;" edge="1" parent="1" source="WpR4HrJ7JRZAoJs09nRu-4" target="WpR4HrJ7JRZAoJs09nRu-58">
          <mxGeometry relative="1" as="geometry" />
        </mxCell>
        <mxCell id="WpR4HrJ7JRZAoJs09nRu-4" value="Dirección" style="rounded=0;whiteSpace=wrap;html=1;" vertex="1" parent="1">
          <mxGeometry x="1360" y="80" width="120" height="60" as="geometry" />
        </mxCell>
        <mxCell id="WpR4HrJ7JRZAoJs09nRu-5" value="Ubicación" style="rounded=0;whiteSpace=wrap;html=1;" vertex="1" parent="1">
          <mxGeometry x="1870" y="80" width="120" height="60" as="geometry" />
        </mxCell>
        <mxCell id="WpR4HrJ7JRZAoJs09nRu-22" style="edgeStyle=none;rounded=0;orthogonalLoop=1;jettySize=auto;html=1;strokeWidth=8;" edge="1" parent="1" source="WpR4HrJ7JRZAoJs09nRu-7" target="WpR4HrJ7JRZAoJs09nRu-21">
          <mxGeometry relative="1" as="geometry" />
        </mxCell>
        <mxCell id="WpR4HrJ7JRZAoJs09nRu-7" value="Empleado" style="rounded=0;whiteSpace=wrap;html=1;" vertex="1" parent="1">
          <mxGeometry x="270" y="230" width="120" height="60" as="geometry" />
        </mxCell>
        <mxCell id="WpR4HrJ7JRZAoJs09nRu-17" style="edgeStyle=none;rounded=0;orthogonalLoop=1;jettySize=auto;html=1;exitX=1;exitY=0.5;exitDx=0;exitDy=0;entryX=0;entryY=0.25;entryDx=0;entryDy=0;strokeColor=default;align=center;verticalAlign=middle;fontFamily=Helvetica;fontSize=11;fontColor=default;labelBackgroundColor=default;endArrow=none;endFill=0;" edge="1" parent="1" source="WpR4HrJ7JRZAoJs09nRu-8" target="WpR4HrJ7JRZAoJs09nRu-1">
          <mxGeometry relative="1" as="geometry" />
        </mxCell>
        <mxCell id="WpR4HrJ7JRZAoJs09nRu-8" value="( Nombre )" style="ellipse;whiteSpace=wrap;html=1;" vertex="1" parent="1">
          <mxGeometry x="90" y="40" width="120" height="80" as="geometry" />
        </mxCell>
        <mxCell id="WpR4HrJ7JRZAoJs09nRu-12" style="rounded=0;orthogonalLoop=1;jettySize=auto;html=1;exitX=1;exitY=1;exitDx=0;exitDy=0;endArrow=none;endFill=0;" edge="1" parent="1" source="WpR4HrJ7JRZAoJs09nRu-9" target="WpR4HrJ7JRZAoJs09nRu-8">
          <mxGeometry relative="1" as="geometry" />
        </mxCell>
        <mxCell id="WpR4HrJ7JRZAoJs09nRu-9" value="Prenombre" style="ellipse;whiteSpace=wrap;html=1;" vertex="1" parent="1">
          <mxGeometry x="-100" y="-40" width="120" height="80" as="geometry" />
        </mxCell>
        <mxCell id="WpR4HrJ7JRZAoJs09nRu-13" style="rounded=0;orthogonalLoop=1;jettySize=auto;html=1;exitX=0.5;exitY=1;exitDx=0;exitDy=0;entryX=0;entryY=0;entryDx=0;entryDy=0;strokeColor=default;align=center;verticalAlign=middle;fontFamily=Helvetica;fontSize=11;fontColor=default;labelBackgroundColor=default;endArrow=none;endFill=0;" edge="1" parent="1" source="WpR4HrJ7JRZAoJs09nRu-10" target="WpR4HrJ7JRZAoJs09nRu-8">
          <mxGeometry relative="1" as="geometry" />
        </mxCell>
        <mxCell id="WpR4HrJ7JRZAoJs09nRu-10" value="Primer Apellido" style="ellipse;whiteSpace=wrap;html=1;" vertex="1" parent="1">
          <mxGeometry x="40" y="-110" width="120" height="80" as="geometry" />
        </mxCell>
        <mxCell id="WpR4HrJ7JRZAoJs09nRu-14" style="rounded=0;orthogonalLoop=1;jettySize=auto;html=1;exitX=0;exitY=1;exitDx=0;exitDy=0;strokeColor=default;align=center;verticalAlign=middle;fontFamily=Helvetica;fontSize=11;fontColor=default;labelBackgroundColor=default;endArrow=none;endFill=0;" edge="1" parent="1" source="WpR4HrJ7JRZAoJs09nRu-11" target="WpR4HrJ7JRZAoJs09nRu-8">
          <mxGeometry relative="1" as="geometry" />
        </mxCell>
        <mxCell id="WpR4HrJ7JRZAoJs09nRu-11" value="Segundo Apellido" style="ellipse;whiteSpace=wrap;html=1;" vertex="1" parent="1">
          <mxGeometry x="210" y="-110" width="120" height="80" as="geometry" />
        </mxCell>
        <mxCell id="WpR4HrJ7JRZAoJs09nRu-16" style="edgeStyle=none;rounded=0;orthogonalLoop=1;jettySize=auto;html=1;exitX=0;exitY=1;exitDx=0;exitDy=0;entryX=1;entryY=0;entryDx=0;entryDy=0;strokeColor=default;align=center;verticalAlign=middle;fontFamily=Helvetica;fontSize=11;fontColor=default;labelBackgroundColor=default;endArrow=none;endFill=0;" edge="1" parent="1" source="WpR4HrJ7JRZAoJs09nRu-15" target="WpR4HrJ7JRZAoJs09nRu-1">
          <mxGeometry relative="1" as="geometry" />
        </mxCell>
        <mxCell id="WpR4HrJ7JRZAoJs09nRu-15" value="DNI" style="ellipse;whiteSpace=wrap;html=1;" vertex="1" parent="1">
          <mxGeometry x="425" y="-40" width="120" height="80" as="geometry" />
        </mxCell>
        <mxCell id="WpR4HrJ7JRZAoJs09nRu-20" style="edgeStyle=none;rounded=0;orthogonalLoop=1;jettySize=auto;html=1;entryX=0;entryY=0.5;entryDx=0;entryDy=0;strokeColor=default;align=center;verticalAlign=middle;fontFamily=Helvetica;fontSize=11;fontColor=default;labelBackgroundColor=default;endArrow=none;endFill=0;" edge="1" parent="1" source="WpR4HrJ7JRZAoJs09nRu-19" target="WpR4HrJ7JRZAoJs09nRu-7">
          <mxGeometry relative="1" as="geometry" />
        </mxCell>
        <mxCell id="WpR4HrJ7JRZAoJs09nRu-19" value="Cargo" style="ellipse;whiteSpace=wrap;html=1;" vertex="1" parent="1">
          <mxGeometry x="90" y="220" width="120" height="80" as="geometry" />
        </mxCell>
        <mxCell id="WpR4HrJ7JRZAoJs09nRu-32" style="edgeStyle=none;rounded=0;orthogonalLoop=1;jettySize=auto;html=1;exitX=0.5;exitY=1;exitDx=0;exitDy=0;entryX=0.5;entryY=0;entryDx=0;entryDy=0;strokeColor=default;align=center;verticalAlign=middle;fontFamily=Helvetica;fontSize=11;fontColor=default;labelBackgroundColor=default;endArrow=none;endFill=0;" edge="1" parent="1" source="WpR4HrJ7JRZAoJs09nRu-21" target="WpR4HrJ7JRZAoJs09nRu-31">
          <mxGeometry relative="1" as="geometry" />
        </mxCell>
        <mxCell id="WpR4HrJ7JRZAoJs09nRu-21" value="Transportista" style="rounded=0;whiteSpace=wrap;html=1;" vertex="1" parent="1">
          <mxGeometry x="270" y="400" width="120" height="60" as="geometry" />
        </mxCell>
        <mxCell id="WpR4HrJ7JRZAoJs09nRu-29" style="edgeStyle=none;rounded=0;orthogonalLoop=1;jettySize=auto;html=1;exitX=0;exitY=0.5;exitDx=0;exitDy=0;entryX=1;entryY=0.25;entryDx=0;entryDy=0;strokeColor=default;align=center;verticalAlign=middle;fontFamily=Helvetica;fontSize=11;fontColor=default;labelBackgroundColor=default;endArrow=none;endFill=0;" edge="1" parent="1" source="WpR4HrJ7JRZAoJs09nRu-23" target="WpR4HrJ7JRZAoJs09nRu-21">
          <mxGeometry relative="1" as="geometry" />
        </mxCell>
        <mxCell id="WpR4HrJ7JRZAoJs09nRu-23" value="Estado" style="ellipse;whiteSpace=wrap;html=1;" vertex="1" parent="1">
          <mxGeometry x="480" y="320" width="120" height="80" as="geometry" />
        </mxCell>
        <mxCell id="WpR4HrJ7JRZAoJs09nRu-28" style="edgeStyle=none;rounded=0;orthogonalLoop=1;jettySize=auto;html=1;exitX=0;exitY=0.5;exitDx=0;exitDy=0;entryX=1;entryY=0.75;entryDx=0;entryDy=0;strokeColor=default;align=center;verticalAlign=middle;fontFamily=Helvetica;fontSize=11;fontColor=default;labelBackgroundColor=default;endArrow=none;endFill=0;" edge="1" parent="1" source="WpR4HrJ7JRZAoJs09nRu-24" target="WpR4HrJ7JRZAoJs09nRu-21">
          <mxGeometry relative="1" as="geometry" />
        </mxCell>
        <mxCell id="WpR4HrJ7JRZAoJs09nRu-24" value="Número de Licencia" style="ellipse;whiteSpace=wrap;html=1;" vertex="1" parent="1">
          <mxGeometry x="480" y="410" width="120" height="80" as="geometry" />
        </mxCell>
        <mxCell id="WpR4HrJ7JRZAoJs09nRu-27" style="edgeStyle=none;rounded=0;orthogonalLoop=1;jettySize=auto;html=1;exitX=0;exitY=0.5;exitDx=0;exitDy=0;entryX=1;entryY=1;entryDx=0;entryDy=0;strokeColor=default;align=center;verticalAlign=middle;fontFamily=Helvetica;fontSize=11;fontColor=default;labelBackgroundColor=default;endArrow=none;endFill=0;" edge="1" parent="1" source="WpR4HrJ7JRZAoJs09nRu-25" target="WpR4HrJ7JRZAoJs09nRu-21">
          <mxGeometry relative="1" as="geometry" />
        </mxCell>
        <mxCell id="WpR4HrJ7JRZAoJs09nRu-25" value="Tipo de Licencia" style="ellipse;whiteSpace=wrap;html=1;" vertex="1" parent="1">
          <mxGeometry x="480" y="510" width="120" height="80" as="geometry" />
        </mxCell>
        <mxCell id="WpR4HrJ7JRZAoJs09nRu-30" value="Transporte" style="rounded=0;whiteSpace=wrap;html=1;" vertex="1" parent="1">
          <mxGeometry x="270" y="730" width="120" height="60" as="geometry" />
        </mxCell>
        <mxCell id="WpR4HrJ7JRZAoJs09nRu-33" style="rounded=0;orthogonalLoop=1;jettySize=auto;html=1;exitX=0.5;exitY=1;exitDx=0;exitDy=0;entryX=0.5;entryY=0;entryDx=0;entryDy=0;strokeColor=default;align=center;verticalAlign=middle;fontFamily=Helvetica;fontSize=11;fontColor=default;labelBackgroundColor=default;endArrow=none;endFill=0;" edge="1" parent="1" source="WpR4HrJ7JRZAoJs09nRu-31" target="WpR4HrJ7JRZAoJs09nRu-30">
          <mxGeometry relative="1" as="geometry" />
        </mxCell>
        <mxCell id="WpR4HrJ7JRZAoJs09nRu-31" value="Asignado" style="rhombus;whiteSpace=wrap;html=1;" vertex="1" parent="1">
          <mxGeometry x="290" y="550" width="80" height="80" as="geometry" />
        </mxCell>
        <mxCell id="WpR4HrJ7JRZAoJs09nRu-36" style="edgeStyle=none;rounded=0;orthogonalLoop=1;jettySize=auto;html=1;exitX=1;exitY=0.5;exitDx=0;exitDy=0;entryX=0;entryY=0.5;entryDx=0;entryDy=0;strokeColor=default;align=center;verticalAlign=middle;fontFamily=Helvetica;fontSize=11;fontColor=default;labelBackgroundColor=default;endArrow=none;endFill=0;" edge="1" parent="1" source="WpR4HrJ7JRZAoJs09nRu-34" target="WpR4HrJ7JRZAoJs09nRu-3">
          <mxGeometry relative="1" as="geometry" />
        </mxCell>
        <mxCell id="WpR4HrJ7JRZAoJs09nRu-34" value="Posee" style="rhombus;whiteSpace=wrap;html=1;" vertex="1" parent="1">
          <mxGeometry x="580" y="70" width="80" height="80" as="geometry" />
        </mxCell>
        <mxCell id="WpR4HrJ7JRZAoJs09nRu-39" style="edgeStyle=none;rounded=0;orthogonalLoop=1;jettySize=auto;html=1;exitX=1;exitY=0.5;exitDx=0;exitDy=0;strokeColor=default;align=center;verticalAlign=middle;fontFamily=Helvetica;fontSize=11;fontColor=default;labelBackgroundColor=default;endArrow=ERmany;endFill=0;" edge="1" parent="1" source="WpR4HrJ7JRZAoJs09nRu-37" target="WpR4HrJ7JRZAoJs09nRu-4">
          <mxGeometry relative="1" as="geometry" />
        </mxCell>
        <mxCell id="WpR4HrJ7JRZAoJs09nRu-37" value="Tiene" style="rhombus;whiteSpace=wrap;html=1;fontFamily=Helvetica;fontSize=11;fontColor=default;labelBackgroundColor=default;" vertex="1" parent="1">
          <mxGeometry x="1120" y="70" width="80" height="80" as="geometry" />
        </mxCell>
        <mxCell id="WpR4HrJ7JRZAoJs09nRu-45" style="edgeStyle=none;rounded=0;orthogonalLoop=1;jettySize=auto;html=1;exitX=1;exitY=1;exitDx=0;exitDy=0;strokeColor=default;align=center;verticalAlign=middle;fontFamily=Helvetica;fontSize=11;fontColor=default;labelBackgroundColor=default;endArrow=none;endFill=0;" edge="1" parent="1" source="WpR4HrJ7JRZAoJs09nRu-40" target="WpR4HrJ7JRZAoJs09nRu-3">
          <mxGeometry relative="1" as="geometry" />
        </mxCell>
        <mxCell id="WpR4HrJ7JRZAoJs09nRu-40" value="Teléfono&lt;span style=&quot;color: rgba(0, 0, 0, 0); font-family: monospace; font-size: 0px; text-align: start; text-wrap: nowrap; background-color: rgb(251, 251, 251);&quot;&gt;%3CmxGraphModel%3E%3Croot%3E%3CmxCell%20id%3D%220%22%2F%3E%3CmxCell%20id%3D%221%22%20parent%3D%220%22%2F%3E%3CmxCell%20id%3D%222%22%20value%3D%22%22%20style%3D%22ellipse%3BwhiteSpace%3Dwrap%3Bhtml%3D1%3BfontFamily%3DHelvetica%3BfontSize%3D11%3BfontColor%3Ddefault%3BlabelBackgroundColor%3Ddefault%3B%22%20vertex%3D%221%22%20parent%3D%221%22%3E%3CmxGeometry%20x%3D%22700%22%20y%3D%22-40%22%20width%3D%22120%22%20height%3D%2280%22%20as%3D%22geometry%22%2F%3E%3C%2FmxCell%3E%3C%2Froot%3E%3C%2FmxGraphModel%3E&lt;/span&gt;" style="ellipse;whiteSpace=wrap;html=1;fontFamily=Helvetica;fontSize=11;fontColor=default;labelBackgroundColor=default;" vertex="1" parent="1">
          <mxGeometry x="700" y="-40" width="120" height="80" as="geometry" />
        </mxCell>
        <mxCell id="WpR4HrJ7JRZAoJs09nRu-46" style="edgeStyle=none;rounded=0;orthogonalLoop=1;jettySize=auto;html=1;exitX=0.5;exitY=1;exitDx=0;exitDy=0;strokeColor=default;align=center;verticalAlign=middle;fontFamily=Helvetica;fontSize=11;fontColor=default;labelBackgroundColor=default;endArrow=none;endFill=0;" edge="1" parent="1" source="WpR4HrJ7JRZAoJs09nRu-41" target="WpR4HrJ7JRZAoJs09nRu-3">
          <mxGeometry relative="1" as="geometry" />
        </mxCell>
        <mxCell id="WpR4HrJ7JRZAoJs09nRu-41" value="Correo" style="ellipse;whiteSpace=wrap;html=1;fontFamily=Helvetica;fontSize=11;fontColor=default;labelBackgroundColor=default;" vertex="1" parent="1">
          <mxGeometry x="830" y="-70" width="120" height="80" as="geometry" />
        </mxCell>
        <mxCell id="WpR4HrJ7JRZAoJs09nRu-47" style="edgeStyle=none;rounded=0;orthogonalLoop=1;jettySize=auto;html=1;exitX=0.5;exitY=1;exitDx=0;exitDy=0;strokeColor=default;align=center;verticalAlign=middle;fontFamily=Helvetica;fontSize=11;fontColor=default;labelBackgroundColor=default;endArrow=none;endFill=0;" edge="1" parent="1" source="WpR4HrJ7JRZAoJs09nRu-42" target="WpR4HrJ7JRZAoJs09nRu-3">
          <mxGeometry relative="1" as="geometry" />
        </mxCell>
        <mxCell id="WpR4HrJ7JRZAoJs09nRu-42" value="Código Postal" style="ellipse;whiteSpace=wrap;html=1;fontFamily=Helvetica;fontSize=11;fontColor=default;labelBackgroundColor=default;" vertex="1" parent="1">
          <mxGeometry x="960" y="-60" width="120" height="80" as="geometry" />
        </mxCell>
        <mxCell id="WpR4HrJ7JRZAoJs09nRu-44" style="edgeStyle=none;rounded=0;orthogonalLoop=1;jettySize=auto;html=1;exitX=0.5;exitY=0;exitDx=0;exitDy=0;strokeColor=default;align=center;verticalAlign=middle;fontFamily=Helvetica;fontSize=11;fontColor=default;labelBackgroundColor=default;endArrow=none;endFill=0;" edge="1" parent="1" source="WpR4HrJ7JRZAoJs09nRu-43" target="WpR4HrJ7JRZAoJs09nRu-3">
          <mxGeometry relative="1" as="geometry" />
        </mxCell>
        <mxCell id="WpR4HrJ7JRZAoJs09nRu-43" value="Celular" style="ellipse;whiteSpace=wrap;html=1;fontFamily=Helvetica;fontSize=11;fontColor=default;labelBackgroundColor=default;" vertex="1" parent="1">
          <mxGeometry x="760" y="190" width="120" height="80" as="geometry" />
        </mxCell>
        <mxCell id="WpR4HrJ7JRZAoJs09nRu-53" style="edgeStyle=none;rounded=0;orthogonalLoop=1;jettySize=auto;html=1;exitX=1;exitY=1;exitDx=0;exitDy=0;entryX=0.5;entryY=0;entryDx=0;entryDy=0;strokeColor=default;align=center;verticalAlign=middle;fontFamily=Helvetica;fontSize=11;fontColor=default;labelBackgroundColor=default;endArrow=none;endFill=0;" edge="1" parent="1" source="WpR4HrJ7JRZAoJs09nRu-48" target="WpR4HrJ7JRZAoJs09nRu-4">
          <mxGeometry relative="1" as="geometry" />
        </mxCell>
        <mxCell id="WpR4HrJ7JRZAoJs09nRu-48" value="País" style="ellipse;whiteSpace=wrap;html=1;fontFamily=Helvetica;fontSize=11;fontColor=default;labelBackgroundColor=default;" vertex="1" parent="1">
          <mxGeometry x="1200" y="-60" width="120" height="80" as="geometry" />
        </mxCell>
        <mxCell id="WpR4HrJ7JRZAoJs09nRu-54" style="edgeStyle=none;rounded=0;orthogonalLoop=1;jettySize=auto;html=1;exitX=1;exitY=1;exitDx=0;exitDy=0;strokeColor=default;align=center;verticalAlign=middle;fontFamily=Helvetica;fontSize=11;fontColor=default;labelBackgroundColor=default;endArrow=none;endFill=0;" edge="1" parent="1" source="WpR4HrJ7JRZAoJs09nRu-49">
          <mxGeometry relative="1" as="geometry">
            <mxPoint x="1420" y="80" as="targetPoint" />
          </mxGeometry>
        </mxCell>
        <mxCell id="WpR4HrJ7JRZAoJs09nRu-49" value="Departamento" style="ellipse;whiteSpace=wrap;html=1;fontFamily=Helvetica;fontSize=11;fontColor=default;labelBackgroundColor=default;" vertex="1" parent="1">
          <mxGeometry x="1275" y="-140" width="120" height="80" as="geometry" />
        </mxCell>
        <mxCell id="WpR4HrJ7JRZAoJs09nRu-55" style="edgeStyle=none;rounded=0;orthogonalLoop=1;jettySize=auto;html=1;exitX=0.5;exitY=1;exitDx=0;exitDy=0;strokeColor=default;align=center;verticalAlign=middle;fontFamily=Helvetica;fontSize=11;fontColor=default;labelBackgroundColor=default;endArrow=none;endFill=0;" edge="1" parent="1" source="WpR4HrJ7JRZAoJs09nRu-50">
          <mxGeometry relative="1" as="geometry">
            <mxPoint x="1420" y="80" as="targetPoint" />
          </mxGeometry>
        </mxCell>
        <mxCell id="WpR4HrJ7JRZAoJs09nRu-50" value="Distrito" style="ellipse;whiteSpace=wrap;html=1;fontFamily=Helvetica;fontSize=11;fontColor=default;labelBackgroundColor=default;" vertex="1" parent="1">
          <mxGeometry x="1395" y="-190" width="120" height="80" as="geometry" />
        </mxCell>
        <mxCell id="WpR4HrJ7JRZAoJs09nRu-56" style="edgeStyle=none;rounded=0;orthogonalLoop=1;jettySize=auto;html=1;exitX=0;exitY=1;exitDx=0;exitDy=0;strokeColor=default;align=center;verticalAlign=middle;fontFamily=Helvetica;fontSize=11;fontColor=default;labelBackgroundColor=default;endArrow=none;endFill=0;" edge="1" parent="1" source="WpR4HrJ7JRZAoJs09nRu-51">
          <mxGeometry relative="1" as="geometry">
            <mxPoint x="1420" y="80" as="targetPoint" />
          </mxGeometry>
        </mxCell>
        <mxCell id="WpR4HrJ7JRZAoJs09nRu-51" value="Calle" style="ellipse;whiteSpace=wrap;html=1;fontFamily=Helvetica;fontSize=11;fontColor=default;labelBackgroundColor=default;" vertex="1" parent="1">
          <mxGeometry x="1530" y="-150" width="120" height="80" as="geometry" />
        </mxCell>
        <mxCell id="WpR4HrJ7JRZAoJs09nRu-57" style="edgeStyle=none;rounded=0;orthogonalLoop=1;jettySize=auto;html=1;exitX=0;exitY=1;exitDx=0;exitDy=0;strokeColor=default;align=center;verticalAlign=middle;fontFamily=Helvetica;fontSize=11;fontColor=default;labelBackgroundColor=default;endArrow=none;endFill=0;" edge="1" parent="1" source="WpR4HrJ7JRZAoJs09nRu-52">
          <mxGeometry relative="1" as="geometry">
            <mxPoint x="1420" y="80" as="targetPoint" />
          </mxGeometry>
        </mxCell>
        <mxCell id="WpR4HrJ7JRZAoJs09nRu-52" value="Número" style="ellipse;whiteSpace=wrap;html=1;fontFamily=Helvetica;fontSize=11;fontColor=default;labelBackgroundColor=default;" vertex="1" parent="1">
          <mxGeometry x="1570" y="-60" width="120" height="80" as="geometry" />
        </mxCell>
        <mxCell id="WpR4HrJ7JRZAoJs09nRu-60" style="edgeStyle=none;rounded=0;orthogonalLoop=1;jettySize=auto;html=1;exitX=1;exitY=0.5;exitDx=0;exitDy=0;entryX=0;entryY=0.5;entryDx=0;entryDy=0;strokeColor=default;align=center;verticalAlign=middle;fontFamily=Helvetica;fontSize=11;fontColor=default;labelBackgroundColor=default;endArrow=none;endFill=0;" edge="1" parent="1" source="WpR4HrJ7JRZAoJs09nRu-58" target="WpR4HrJ7JRZAoJs09nRu-5">
          <mxGeometry relative="1" as="geometry" />
        </mxCell>
        <mxCell id="WpR4HrJ7JRZAoJs09nRu-58" value="Tiene" style="rhombus;whiteSpace=wrap;html=1;fontFamily=Helvetica;fontSize=11;fontColor=default;labelBackgroundColor=default;" vertex="1" parent="1">
          <mxGeometry x="1640" y="70" width="80" height="80" as="geometry" />
        </mxCell>
        <mxCell id="WpR4HrJ7JRZAoJs09nRu-63" style="edgeStyle=none;rounded=0;orthogonalLoop=1;jettySize=auto;html=1;exitX=0.5;exitY=1;exitDx=0;exitDy=0;entryX=0.5;entryY=0;entryDx=0;entryDy=0;strokeColor=default;align=center;verticalAlign=middle;fontFamily=Helvetica;fontSize=11;fontColor=default;labelBackgroundColor=default;endArrow=none;endFill=0;" edge="1" parent="1" source="WpR4HrJ7JRZAoJs09nRu-61" target="WpR4HrJ7JRZAoJs09nRu-5">
          <mxGeometry relative="1" as="geometry" />
        </mxCell>
        <mxCell id="WpR4HrJ7JRZAoJs09nRu-61" value="Latitud" style="ellipse;whiteSpace=wrap;html=1;fontFamily=Helvetica;fontSize=11;fontColor=default;labelBackgroundColor=default;" vertex="1" parent="1">
          <mxGeometry x="1930" y="-60" width="120" height="80" as="geometry" />
        </mxCell>
        <mxCell id="WpR4HrJ7JRZAoJs09nRu-64" style="edgeStyle=none;rounded=0;orthogonalLoop=1;jettySize=auto;html=1;exitX=0;exitY=0.5;exitDx=0;exitDy=0;entryX=1;entryY=0.5;entryDx=0;entryDy=0;strokeColor=default;align=center;verticalAlign=middle;fontFamily=Helvetica;fontSize=11;fontColor=default;labelBackgroundColor=default;endArrow=none;endFill=0;" edge="1" parent="1" source="WpR4HrJ7JRZAoJs09nRu-62" target="WpR4HrJ7JRZAoJs09nRu-5">
          <mxGeometry relative="1" as="geometry" />
        </mxCell>
        <mxCell id="WpR4HrJ7JRZAoJs09nRu-62" value="Longitud" style="ellipse;whiteSpace=wrap;html=1;fontFamily=Helvetica;fontSize=11;fontColor=default;labelBackgroundColor=default;" vertex="1" parent="1">
          <mxGeometry x="2100" y="40" width="120" height="80" as="geometry" />
        </mxCell>
        <mxCell id="WpR4HrJ7JRZAoJs09nRu-66" style="edgeStyle=none;rounded=0;orthogonalLoop=1;jettySize=auto;html=1;entryX=0;entryY=0.5;entryDx=0;entryDy=0;strokeColor=default;align=center;verticalAlign=middle;fontFamily=Helvetica;fontSize=11;fontColor=default;labelBackgroundColor=default;endArrow=none;endFill=0;" edge="1" parent="1" source="WpR4HrJ7JRZAoJs09nRu-65" target="WpR4HrJ7JRZAoJs09nRu-30">
          <mxGeometry relative="1" as="geometry" />
        </mxCell>
        <mxCell id="WpR4HrJ7JRZAoJs09nRu-65" value="Lleva" style="rhombus;whiteSpace=wrap;html=1;fontFamily=Helvetica;fontSize=11;fontColor=default;labelBackgroundColor=default;" vertex="1" parent="1">
          <mxGeometry x="30" y="720" width="80" height="80" as="geometry" />
        </mxCell>
        <mxCell id="WpR4HrJ7JRZAoJs09nRu-67" value="Mercancía" style="rounded=0;whiteSpace=wrap;html=1;fontFamily=Helvetica;fontSize=11;fontColor=default;labelBackgroundColor=default;" vertex="1" parent="1">
          <mxGeometry x="-230" y="730" width="120" height="60" as="geometry" />
        </mxCell>
      </root>
    </mxGraphModel>
  </diagram>
</mxfile>
